<svg width="103" height="29" viewBox="0 0 103 29" fill="none" xmlns="http://www.w3.org/2000/svg">
<g clip-path="url(#clip0)">
<path d="M40.8084 21.2196C40.8084 26.2682 38.8193 27.7981 32.3164 27.7981C24.4058 27.7981 22.6309 25.9317 22.6309 17.5326C22.6309 13.203 23.0899 11.0917 24.3752 9.63835C25.7676 8.10846 27.9709 7.4812 31.9492 7.4812C37.1056 7.4812 39.3089 8.62862 40.3188 11.7649C40.7319 13.1724 40.8237 14.1362 40.8237 18.5117H27.466V19.2767C27.466 23.3003 28.3075 24.2335 31.9492 24.2335C35.4225 24.2335 36.0498 23.7745 36.0957 21.2196H40.8084ZM36.111 14.7635C36.0192 11.6272 35.3919 11.0458 31.8421 11.0458C29.2562 11.0458 28.3381 11.3824 27.8332 12.6216C27.5731 13.2642 27.5272 13.8149 27.4966 15.559H36.111V14.7635Z" fill="#292929"/>
<path d="M60.6063 19.9793V20.6525C60.6063 22.8555 60.3002 24.2783 59.627 25.3187C58.4488 27.1851 56.5821 27.7818 52.0989 27.7818C48.2431 27.7818 46.2692 27.3228 44.8309 26.0836C43.1784 24.6455 42.5664 22.4578 42.5664 17.608C42.5664 13.4926 42.9489 11.5038 44.0965 9.97386C45.3665 8.22979 47.6922 7.46484 51.5481 7.46484C58.4029 7.46484 60.3002 9.04063 60.3002 14.7165H55.6793C55.6793 11.8709 54.9602 11.2437 51.8235 11.2437C47.9677 11.2437 47.4627 11.9627 47.4627 17.7304C47.4627 20.9585 47.7534 22.5649 48.5185 23.3298C49.0234 23.8347 50.0792 24.0489 51.9459 24.0489C55.3733 24.0489 55.8783 23.4981 55.8783 19.964L60.6063 19.9793Z" fill="#292929"/>
<path d="M19.569 25.4569C20.6859 24.3095 21.145 22.5348 21.145 19.322C21.145 15.9716 20.6247 14.4723 19.0487 13.432C17.8399 12.5293 16.4323 12.254 11.9185 11.9633L11.0157 11.9174C7.7566 11.7338 7.49648 11.7185 6.85384 11.5196C5.52266 11.0912 5.00242 10.158 5.00242 8.18445C5.00242 6.77695 5.20134 5.70603 6.15 5.10937C6.96095 4.60451 8.24623 4.40562 10.9086 4.40562C15.0705 4.40562 15.9732 5.04817 15.9732 8.03146V8.36804H20.5329V7.57249C20.5329 5.27766 20.0892 3.74777 19.0793 2.63095C18.0542 1.48353 16.1721 0.152527 10.7709 0.152527C6.04289 0.152527 3.94666 0.993966 2.27885 2.26377C0.88646 3.2735 0.24382 5.18586 0.24382 8.27624C0.24382 11.8715 1.07007 13.7379 3.0745 14.763C4.43629 15.4055 5.38495 15.5432 9.82223 15.8186C14.2442 16.0787 14.2442 16.0787 14.9022 16.3235C16.0344 16.6906 16.4935 17.5627 16.4935 19.4138C16.4935 21.3415 16.2027 22.3512 15.4836 22.8714C14.7032 23.4833 13.8923 23.621 10.8321 23.621C6.77734 23.621 6.01229 23.5292 5.30844 22.3512C4.86472 21.6628 4.74231 20.9743 4.72701 19.0926H0.152014C0.136713 20.393 0.228519 21.6934 0.473334 22.9632C0.580441 23.6057 0.825257 24.2024 1.16188 24.7532C1.5138 25.3039 1.95753 25.7629 2.47776 26.1301C4.26798 27.201 5.90518 27.9659 10.5261 27.9659C15.9273 27.9506 17.993 27.0021 19.569 25.4569Z" fill="#292929"/>
<path d="M79.9321 8.15592H75.9844H75.1888H75.1735V17.167V19.7372C75.1735 23.1947 74.3166 24.0821 70.6597 24.0821C67.5995 24.0821 67.0487 22.9806 67.0487 20.135V8.14062H62.2441V19.6148C62.2441 25.8415 64.4322 27.8303 71.1034 27.8303C72.0215 27.8609 72.9395 27.7997 73.8423 27.6467C75.4642 27.2337 75.9385 26.6064 75.9385 26.6064L79.9627 21.0376V15.683C79.9321 15.5606 79.9321 8.15592 79.9321 8.15592Z" fill="#292929"/>
<path d="M85.4703 12.7741L85.7304 13.1412L86.0058 12.7741L88.4081 9.63779L88.5458 9.4542L88.4234 9.25531L86.2353 6.01195V5.99665L85.8222 5.43059L82.8232 0.886815L82.7314 0.733826H82.5478H77.2689H76.5957L76.9935 1.26929L85.4703 12.7741Z" fill="#292929"/>
<path d="M102.318 0.550842H100.864C98.3241 0.550842 96.2126 1.0863 94.1775 3.65652L76.9486 27.1709L76.5508 27.7064H77.2087H82.2887H82.457L82.5641 27.5687L87.1238 21.2503L89.3883 18.1446L93.8715 24.2947C95.677 26.8191 97.712 27.8441 100.864 27.8441H102.318H102.654V27.5075V23.3156V22.979H102.318C99.9766 22.979 98.9973 22.8107 98.2017 21.8316L92.4485 13.9374L96.8093 8.00141L97.2836 7.32826C98.523 5.75247 99.3186 5.44649 102.302 5.43119H102.639V5.09462V0.887418V0.550842H102.318Z" fill="#292929"/>
</g>
<defs>
<clipPath id="clip0">
<rect width="102.364" height="28.15" fill="white"/>
</clipPath>
</defs>
</svg>
